<svg class="railroad-diagram" width="771" style="max-height: 112px;" viewBox="0 0 771 112">
<style>
:root {
    --subtleText: #777;
    --highlightText: hotpink;
    --itemHeadingBackground: #eee;
    --background: white;
    --borderColor: #ccc;
    --textColor: #111;

    --diagramBackground: #f8f8f8;
    --diagramLines: black;
    --diagramText: black;
    --terminalLines: black;
    --terminalFill: #feffdf;
    --nonTerminalLines: black;
    --nonTerminalFill: #feffdf;
    --specialSequenceLines: black;
    --specialSequenceFill: #ffe79a;

    --ebnfCodeBackground: #e8e8e8;
    --ebnfIdentifier: #ef5a5a;
    --ebnfTerminal: #ffa952;
    --ebnfBaseColor: #777;
}
svg.railroad-diagram{background:var(--diagramBackground)}
svg.railroad-diagram {
  width: 100%;
}
svg.railroad-diagram path {
  stroke-width: 3;
  stroke: var(--diagramLines);
  fill: rgba(0,0,0,0);
}
svg.railroad-diagram text {
  font: bold 14px monospace;
  text-anchor: middle;
  fill: var(--diagramText);
}
svg.railroad-diagram text.diagram-text {
  font-size: 12px;
}
svg.railroad-diagram text.diagram-arrow {
  font-size: 16px;
}
svg.railroad-diagram text.label {
  text-anchor: start;
}
svg.railroad-diagram text.comment {
  font: italic 12px monospace;
}
svg.railroad-diagram g.non-terminal text {
  /*font-style: italic;*/
}
svg.railroad-diagram g.special-sequence rect {
  fill: var(--specialSequenceFill);
  stroke: var(--specialSequenceLines);
}
svg.railroad-diagram g.special-sequence text {
  font-style: italic;
}
svg.railroad-diagram rect {
  stroke-width: 3;
}
svg.railroad-diagram rect.group-box {
  stroke: gray;
  stroke-dasharray: 10 5;
  fill: none;
}
svg.railroad-diagram g.non-terminal rect {
  fill: var(--nonTerminalFill);
  stroke: var(--nonTerminalLines);
}
svg.railroad-diagram g.terminal rect {
  fill: var(--terminalFill);
  stroke: var(--terminalLines);
}
svg.railroad-diagram path.diagram-text {
  stroke-width: 3;
  stroke: black;
  fill: white;
  cursor: help;
}
svg.railroad-diagram g.diagram-text:hover path.diagram-text {
  fill: #eee;
}

</style>
<g transform="translate(.5 .5)">
<g>
<path d="M20 21v20m10 -20v20m-10 -10h20"></path>
</g>
<path d="M40 31h10"></path>
<g>
<path d="M50 31h0"></path>
<path d="M721 31h0"></path>
<g class="terminal">
<path d="M50 31h0"></path>
<path d="M112.5 31h0"></path>
<rect x="50" y="20" width="62.5" height="22" rx="10" ry="10"></rect>
<text x="81.25" y="35">count</text>
</g>
<path d="M112.5 31h10"></path>
<path d="M122.5 31h10"></path>
<g class="non-terminal">
<path d="M132.5 31h0"></path>
<path d="M246 31h0"></path>
<rect x="132.5" y="20" width="113.5" height="22"></rect>
<a xlink:href="#count-scope"><text x="189.25" y="35">count scope</text>
</a>
</g>
<path d="M246 31h10"></path>
<path d="M256 31h10"></path>
<g class="non-terminal">
<path d="M266 31h0"></path>
<path d="M405 31h0"></path>
<rect x="266" y="20" width="139" height="22"></rect>
<a xlink:href="#object-pattern"><text x="335.5" y="35">object pattern</text>
</a>
</g>
<path d="M405 31h10"></path>
<path d="M415 31h10"></path>
<g class="terminal">
<path d="M425 31h0"></path>
<path d="M462 31h0"></path>
<rect x="425" y="20" width="37" height="22" rx="10" ry="10"></rect>
<text x="443.5" y="35">is</text>
</g>
<path d="M462 31h10"></path>
<g>
<path d="M472 31h0"></path>
<path d="M640 31h0"></path>
<path d="M472 31h20"></path>
<g>
<path d="M492 31h128"></path>
</g>
<path d="M620 31h20"></path>
<path d="M472 31a10 10 0 0 1 10 10v0a10 10 0 0 0 10 10"></path>
<g class="non-terminal">
<path d="M492 51h11.5"></path>
<path d="M608.5 51h11.5"></path>
<rect x="503.5" y="40" width="105" height="22"></rect>
<a xlink:href="#comparator"><text x="556" y="55">comparator</text>
</a>
</g>
<path d="M620 51a10 10 0 0 0 10 -10v0a10 10 0 0 1 10 -10"></path>
<path d="M472 31a10 10 0 0 1 10 10v30a10 10 0 0 0 10 10"></path>
<g>
<path d="M492 81h0"></path>
<path d="M620 81h0"></path>
<g class="non-terminal">
<path d="M492 81h0"></path>
<path d="M563 81h0"></path>
<rect x="492" y="70" width="71" height="22"></rect>
<a xlink:href="#number"><text x="527.5" y="85">number</text>
</a>
</g>
<path d="M563 81h10"></path>
<path d="M573 81h10"></path>
<g class="terminal">
<path d="M583 81h0"></path>
<path d="M620 81h0"></path>
<rect x="583" y="70" width="37" height="22" rx="10" ry="10"></rect>
<text x="601.5" y="85">to</text>
</g>
</g>
<path d="M620 81a10 10 0 0 0 10 -10v-30a10 10 0 0 1 10 -10"></path>
</g>
<path d="M640 31h10"></path>
<g class="non-terminal">
<path d="M650 31h0"></path>
<path d="M721 31h0"></path>
<rect x="650" y="20" width="71" height="22"></rect>
<a xlink:href="#number"><text x="685.5" y="35">number</text>
</a>
</g>
</g>
<path d="M721 31h10"></path>
<path d="M 731 31 h 20 m -10 -10 v 20 m 10 -20 v 20"></path>
</g>
</svg>
