<svg class="railroad-diagram" width="373" style="max-height: 100px;" viewBox="0 0 373 100">
<style>
svg.railroad-diagram{background:#fbfbff}
svg.railroad-diagram {
  width: 100%;
}
svg.railroad-diagram path {
  stroke-width: 3;
  stroke: #1f2430;
  fill: rgba(0,0,0,0);
}
svg.railroad-diagram text {
  font: bold 14px monospace;
  text-anchor: middle;
  fill: #1f2430;
}
svg.railroad-diagram text.diagram-text {
  font-size: 12px;
}
svg.railroad-diagram text.diagram-arrow {
  font-size: 16px;
}
svg.railroad-diagram text.label {
  text-anchor: start;
}
svg.railroad-diagram text.comment {
  font: italic 12px monospace;
}
svg.railroad-diagram g.non-terminal text {
  /*font-style: italic;*/
}
svg.railroad-diagram g.special-sequence rect {
  fill: #f3f4ff;
  stroke: #7a81ff;
}
svg.railroad-diagram g.special-sequence text {
  font-style: italic;
}
svg.railroad-diagram rect {
  stroke-width: 3;
}
svg.railroad-diagram rect.group-box {
  stroke: gray;
  stroke-dasharray: 10 5;
  fill: none;
}
svg.railroad-diagram g.non-terminal rect {
  fill: #eef0ff;
  stroke: #7a81ff;
}
svg.railroad-diagram g.terminal rect {
  fill: #fff6e6;
  stroke: #c2680f;
}
svg.railroad-diagram path.diagram-text {
  stroke-width: 3;
  stroke: black;
  fill: white;
  cursor: help;
}
svg.railroad-diagram g.diagram-text:hover path.diagram-text {
  fill: #eee;
}

</style>
<g transform="translate(.5 .5)">
<g>
<path d="M20 29v20m10 -20v20m-10 -10h20"></path>
</g>
<path d="M40 39h10"></path>
<g>
<path d="M50 39h0"></path>
<path d="M323 39h0"></path>
<g>
<path d="M50 39h0"></path>
<path d="M237.5 39h0"></path>
<path d="M50 39h20"></path>
<g class="non-terminal">
<path d="M70 39h21.25"></path>
<path d="M196.25 39h21.25"></path>
<rect x="91.25" y="28" width="105" height="22"></rect>
<a xlink:href="#identifier"><text x="143.75" y="43">identifier</text>
</a>
</g>
<path d="M217.5 39h20"></path>
<path d="M50 39a10 10 0 0 1 10 10v10a10 10 0 0 0 10 10"></path>
<g class="non-terminal">
<path d="M70 69h0"></path>
<path d="M217.5 69h0"></path>
<rect x="70" y="58" width="147.5" height="22"></rect>
<a xlink:href="#group-reference"><text x="143.75" y="73">group reference</text>
</a>
</g>
<path d="M217.5 69a10 10 0 0 0 10 -10v-10a10 10 0 0 1 10 -10"></path>
</g>
<g>
<path d="M237.5 39h0"></path>
<path d="M323 39h0"></path>
<path d="M237.5 39a10 10 0 0 0 10 -10v0a10 10 0 0 1 10 -10"></path>
<g>
<path d="M257.5 19h45.5"></path>
</g>
<path d="M303 19a10 10 0 0 1 10 10v0a10 10 0 0 0 10 10"></path>
<path d="M237.5 39h20"></path>
<g class="terminal">
<path d="M257.5 39h0"></path>
<path d="M303 39h0"></path>
<rect x="257.5" y="28" width="45.5" height="22" rx="10" ry="10"></rect>
<text x="280.25" y="43">not</text>
</g>
<path d="M303 39h20"></path>
</g>
</g>
<path d="M323 39h10"></path>
<path d="M 333 39 h 20 m -10 -10 v 20 m 10 -20 v 20"></path>
</g>
</svg>
