<svg class="railroad-diagram" width="803.5" style="max-height: 318px;" viewBox="0 0 803.5 318">
<style>
:root {
    --subtleText: #777;
    --highlightText: hotpink;
    --itemHeadingBackground: #eee;
    --background: white;
    --borderColor: #ccc;
    --textColor: #111;

    --diagramBackground: #f8f8f8;
    --diagramLines: black;
    --diagramText: black;
    --terminalLines: black;
    --terminalFill: #feffdf;
    --nonTerminalLines: black;
    --nonTerminalFill: #feffdf;
    --specialSequenceLines: black;
    --specialSequenceFill: #ffe79a;

    --ebnfCodeBackground: #e8e8e8;
    --ebnfIdentifier: #ef5a5a;
    --ebnfTerminal: #ffa952;
    --ebnfBaseColor: #777;
}
svg.railroad-diagram{background:var(--diagramBackground)}
svg.railroad-diagram {
  width: 100%;
}
svg.railroad-diagram path {
  stroke-width: 3;
  stroke: var(--diagramLines);
  fill: rgba(0,0,0,0);
}
svg.railroad-diagram text {
  font: bold 14px monospace;
  text-anchor: middle;
  fill: var(--diagramText);
}
svg.railroad-diagram text.diagram-text {
  font-size: 12px;
}
svg.railroad-diagram text.diagram-arrow {
  font-size: 16px;
}
svg.railroad-diagram text.label {
  text-anchor: start;
}
svg.railroad-diagram text.comment {
  font: italic 12px monospace;
}
svg.railroad-diagram g.non-terminal text {
  /*font-style: italic;*/
}
svg.railroad-diagram g.special-sequence rect {
  fill: var(--specialSequenceFill);
  stroke: var(--specialSequenceLines);
}
svg.railroad-diagram g.special-sequence text {
  font-style: italic;
}
svg.railroad-diagram rect {
  stroke-width: 3;
}
svg.railroad-diagram rect.group-box {
  stroke: gray;
  stroke-dasharray: 10 5;
  fill: none;
}
svg.railroad-diagram g.non-terminal rect {
  fill: var(--nonTerminalFill);
  stroke: var(--nonTerminalLines);
}
svg.railroad-diagram g.terminal rect {
  fill: var(--terminalFill);
  stroke: var(--terminalLines);
}
svg.railroad-diagram path.diagram-text {
  stroke-width: 3;
  stroke: black;
  fill: white;
  cursor: help;
}
svg.railroad-diagram g.diagram-text:hover path.diagram-text {
  fill: #eee;
}

</style>
<g transform="translate(.5 .5)">
<g>
<path d="M20 21v20m10 -20v20m-10 -10h20"></path>
</g>
<path d="M40 31h10"></path>
<g>
<path d="M50 31h0"></path>
<path d="M753.5 31h0"></path>
<g class="non-terminal">
<path d="M50 31h0"></path>
<path d="M129.5 31h0"></path>
<rect x="50" y="20" width="79.5" height="22"></rect>
<a xlink:href="#element"><text x="89.75" y="35">element</text>
</a>
</g>
<path d="M129.5 31h10"></path>
<g>
<path d="M139.5 31h0"></path>
<path d="M753.5 31h0"></path>
<path d="M139.5 31h20"></path>
<g>
<path d="M159.5 31h120.75"></path>
<path d="M612.75 31h120.75"></path>
<g class="terminal">
<path d="M280.25 31h0"></path>
<path d="M334.25 31h0"></path>
<rect x="280.25" y="20" width="54" height="22" rx="10" ry="10"></rect>
<text x="307.25" y="35">near</text>
</g>
<path d="M334.25 31h10"></path>
<path d="M344.25 31h10"></path>
<g class="non-terminal">
<path d="M354.25 31h0"></path>
<path d="M459.25 31h0"></path>
<rect x="354.25" y="20" width="105" height="22"></rect>
<a xlink:href="#identifier"><text x="406.75" y="35">identifier</text>
</a>
</g>
<path d="M459.25 31h10"></path>
<path d="M469.25 31h10"></path>
<g>
<path d="M479.25 31h0"></path>
<path d="M612.75 31h0"></path>
<path d="M479.25 31h10"></path>
<g class="non-terminal">
<path d="M489.25 31h0"></path>
<path d="M602.75 31h0"></path>
<rect x="489.25" y="20" width="113.5" height="22"></rect>
<a xlink:href="#near-clause"><text x="546" y="35">near clause</text>
</a>
</g>
<path d="M602.75 31h10"></path>
<path d="M489.25 31a10 10 0 0 0 -10 10v0a10 10 0 0 0 10 10"></path>
<g>
<path d="M489.25 51h113.5"></path>
</g>
<path d="M602.75 51a10 10 0 0 0 10 -10v0a10 10 0 0 0 -10 -10"></path>
</g>
</g>
<path d="M733.5 31h20"></path>
<path d="M139.5 31a10 10 0 0 1 10 10v27a10 10 0 0 0 10 10"></path>
<g>
<path d="M159.5 78h88.75"></path>
<path d="M644.75 78h88.75"></path>
<g class="terminal">
<path d="M248.25 78h0"></path>
<path d="M319.25 78h0"></path>
<rect x="248.25" y="67" width="71" height="22" rx="10" ry="10"></rect>
<text x="283.75" y="82">inside</text>
</g>
<path d="M319.25 78h10"></path>
<path d="M329.25 78h10"></path>
<g class="non-terminal">
<path d="M339.25 78h0"></path>
<path d="M444.25 78h0"></path>
<rect x="339.25" y="67" width="105" height="22"></rect>
<a xlink:href="#identifier"><text x="391.75" y="82">identifier</text>
</a>
</g>
<path d="M444.25 78h10"></path>
<g>
<path d="M454.25 78h0"></path>
<path d="M644.75 78h0"></path>
<path d="M454.25 78a10 10 0 0 0 10 -10v0a10 10 0 0 1 10 -10"></path>
<g>
<path d="M474.25 58h150.5"></path>
</g>
<path d="M624.75 58a10 10 0 0 1 10 10v0a10 10 0 0 0 10 10"></path>
<path d="M454.25 78h20"></path>
<g>
<path d="M474.25 78h0"></path>
<path d="M624.75 78h0"></path>
<path d="M474.25 78h10"></path>
<g class="non-terminal">
<path d="M484.25 78h0"></path>
<path d="M614.75 78h0"></path>
<rect x="484.25" y="67" width="130.5" height="22"></rect>
<a xlink:href="#inside-clause"><text x="549.5" y="82">inside clause</text>
</a>
</g>
<path d="M614.75 78h10"></path>
<path d="M484.25 78a10 10 0 0 0 -10 10v0a10 10 0 0 0 10 10"></path>
<g>
<path d="M484.25 98h130.5"></path>
</g>
<path d="M614.75 98a10 10 0 0 0 10 -10v0a10 10 0 0 0 -10 -10"></path>
</g>
<path d="M624.75 78h20"></path>
</g>
</g>
<path d="M733.5 78a10 10 0 0 0 10 -10v-27a10 10 0 0 1 10 -10"></path>
<path d="M139.5 31a10 10 0 0 1 10 10v74a10 10 0 0 0 10 10"></path>
<g>
<path d="M159.5 125h30.5"></path>
<path d="M703 125h30.5"></path>
<g class="terminal">
<path d="M190 125h0"></path>
<path d="M286.5 125h0"></path>
<rect x="190" y="114" width="96.5" height="22" rx="10" ry="10"></rect>
<text x="238.25" y="129">partially</text>
</g>
<path d="M286.5 125h10"></path>
<path d="M296.5 125h10"></path>
<g class="terminal">
<path d="M306.5 125h0"></path>
<path d="M377.5 125h0"></path>
<rect x="306.5" y="114" width="71" height="22" rx="10" ry="10"></rect>
<text x="342" y="129">inside</text>
</g>
<path d="M377.5 125h10"></path>
<path d="M387.5 125h10"></path>
<g class="non-terminal">
<path d="M397.5 125h0"></path>
<path d="M502.5 125h0"></path>
<rect x="397.5" y="114" width="105" height="22"></rect>
<a xlink:href="#identifier"><text x="450" y="129">identifier</text>
</a>
</g>
<path d="M502.5 125h10"></path>
<g>
<path d="M512.5 125h0"></path>
<path d="M703 125h0"></path>
<path d="M512.5 125a10 10 0 0 0 10 -10v0a10 10 0 0 1 10 -10"></path>
<g>
<path d="M532.5 105h150.5"></path>
</g>
<path d="M683 105a10 10 0 0 1 10 10v0a10 10 0 0 0 10 10"></path>
<path d="M512.5 125h20"></path>
<g>
<path d="M532.5 125h0"></path>
<path d="M683 125h0"></path>
<path d="M532.5 125h10"></path>
<g class="non-terminal">
<path d="M542.5 125h0"></path>
<path d="M673 125h0"></path>
<rect x="542.5" y="114" width="130.5" height="22"></rect>
<a xlink:href="#inside-clause"><text x="607.75" y="129">inside clause</text>
</a>
</g>
<path d="M673 125h10"></path>
<path d="M542.5 125a10 10 0 0 0 -10 10v0a10 10 0 0 0 10 10"></path>
<g>
<path d="M542.5 145h130.5"></path>
</g>
<path d="M673 145a10 10 0 0 0 10 -10v0a10 10 0 0 0 -10 -10"></path>
</g>
<path d="M683 125h20"></path>
</g>
</g>
<path d="M733.5 125a10 10 0 0 0 10 -10v-74a10 10 0 0 1 10 -10"></path>
<path d="M139.5 31a10 10 0 0 1 10 10v121a10 10 0 0 0 10 10"></path>
<g>
<path d="M159.5 172h96.5"></path>
<path d="M637 172h96.5"></path>
<g class="non-terminal">
<path d="M256 172h0"></path>
<path d="M344 172h0"></path>
<rect x="256" y="161" width="88" height="22"></rect>
<a xlink:href="#relation"><text x="300" y="176">relation</text>
</a>
</g>
<path d="M344 172h10"></path>
<g>
<path d="M354 172h0"></path>
<path d="M637 172h0"></path>
<path d="M354 172h20"></path>
<g>
<path d="M374 172h0"></path>
<path d="M617 172h0"></path>
<g class="non-terminal">
<path d="M374 172h0"></path>
<path d="M479 172h0"></path>
<rect x="374" y="161" width="105" height="22"></rect>
<a xlink:href="#identifier"><text x="426.5" y="176">identifier</text>
</a>
</g>
<path d="M479 172h10"></path>
<g>
<path d="M489 172h0"></path>
<path d="M617 172h0"></path>
<path d="M489 172a10 10 0 0 0 10 -10v0a10 10 0 0 1 10 -10"></path>
<g>
<path d="M509 152h88"></path>
</g>
<path d="M597 152a10 10 0 0 1 10 10v0a10 10 0 0 0 10 10"></path>
<path d="M489 172h20"></path>
<g class="non-terminal">
<path d="M509 172h0"></path>
<path d="M597 172h0"></path>
<rect x="509" y="161" width="88" height="22"></rect>
<a xlink:href="#distance"><text x="553" y="176">distance</text>
</a>
</g>
<path d="M597 172h20"></path>
</g>
</g>
<path d="M617 172h20"></path>
<path d="M354 172a10 10 0 0 1 10 10v10a10 10 0 0 0 10 10"></path>
<g class="non-terminal">
<path d="M374 202h77.5"></path>
<path d="M539.5 202h77.5"></path>
<rect x="451.5" y="191" width="88" height="22"></rect>
<a xlink:href="#distance"><text x="495.5" y="206">distance</text>
</a>
</g>
<path d="M617 202a10 10 0 0 0 10 -10v-10a10 10 0 0 1 10 -10"></path>
</g>
</g>
<path d="M733.5 172a10 10 0 0 0 10 -10v-121a10 10 0 0 1 10 -10"></path>
<path d="M139.5 31a10 10 0 0 1 10 10v189a10 10 0 0 0 10 10"></path>
<g>
<path d="M159.5 240h0"></path>
<path d="M733.5 240h0"></path>
<g class="non-terminal">
<path d="M159.5 240h0"></path>
<path d="M315.5 240h0"></path>
<rect x="159.5" y="229" width="156" height="22"></rect>
<a xlink:href="#ternary-relation"><text x="237.5" y="244">ternary relation</text>
</a>
</g>
<path d="M315.5 240h10"></path>
<g>
<path d="M325.5 240h0"></path>
<path d="M733.5 240h0"></path>
<path d="M325.5 240h20"></path>
<g>
<path d="M345.5 240h0"></path>
<path d="M713.5 240h0"></path>
<g class="non-terminal">
<path d="M345.5 240h0"></path>
<path d="M450.5 240h0"></path>
<rect x="345.5" y="229" width="105" height="22"></rect>
<a xlink:href="#identifier"><text x="398" y="244">identifier</text>
</a>
</g>
<path d="M450.5 240h10"></path>
<path d="M460.5 240h10"></path>
<g class="non-terminal">
<path d="M470.5 240h0"></path>
<path d="M575.5 240h0"></path>
<rect x="470.5" y="229" width="105" height="22"></rect>
<a xlink:href="#identifier"><text x="523" y="244">identifier</text>
</a>
</g>
<path d="M575.5 240h10"></path>
<g>
<path d="M585.5 240h0"></path>
<path d="M713.5 240h0"></path>
<path d="M585.5 240a10 10 0 0 0 10 -10v0a10 10 0 0 1 10 -10"></path>
<g>
<path d="M605.5 220h88"></path>
</g>
<path d="M693.5 220a10 10 0 0 1 10 10v0a10 10 0 0 0 10 10"></path>
<path d="M585.5 240h20"></path>
<g class="non-terminal">
<path d="M605.5 240h0"></path>
<path d="M693.5 240h0"></path>
<rect x="605.5" y="229" width="88" height="22"></rect>
<a xlink:href="#distance"><text x="649.5" y="244">distance</text>
</a>
</g>
<path d="M693.5 240h20"></path>
</g>
</g>
<path d="M713.5 240h20"></path>
<path d="M325.5 240a10 10 0 0 1 10 10v18a10 10 0 0 0 10 10"></path>
<g>
<path d="M345.5 278h4"></path>
<path d="M709.5 278h4"></path>
<g class="terminal">
<path d="M349.5 278h0"></path>
<path d="M378 278h0"></path>
<rect x="349.5" y="267" width="28.5" height="22" rx="10" ry="10"></rect>
<text x="363.75" y="282">&#91;</text>
</g>
<path d="M378 278h10"></path>
<path d="M388 278h10"></path>
<g>
<path d="M398 278h0"></path>
<path d="M523 278h0"></path>
<path d="M398 278h10"></path>
<g class="non-terminal">
<path d="M408 278h0"></path>
<path d="M513 278h0"></path>
<rect x="408" y="267" width="105" height="22"></rect>
<a xlink:href="#identifier"><text x="460.5" y="282">identifier</text>
</a>
</g>
<path d="M513 278h10"></path>
<path d="M408 278a10 10 0 0 0 -10 10v0a10 10 0 0 0 10 10"></path>
<g>
<path d="M408 298h105"></path>
</g>
<path d="M513 298a10 10 0 0 0 10 -10v0a10 10 0 0 0 -10 -10"></path>
</g>
<path d="M523 278h10"></path>
<path d="M533 278h10"></path>
<g class="terminal">
<path d="M543 278h0"></path>
<path d="M571.5 278h0"></path>
<rect x="543" y="267" width="28.5" height="22" rx="10" ry="10"></rect>
<text x="557.25" y="282">&#93;</text>
</g>
<path d="M571.5 278h10"></path>
<g>
<path d="M581.5 278h0"></path>
<path d="M709.5 278h0"></path>
<path d="M581.5 278a10 10 0 0 0 10 -10v0a10 10 0 0 1 10 -10"></path>
<g>
<path d="M601.5 258h88"></path>
</g>
<path d="M689.5 258a10 10 0 0 1 10 10v0a10 10 0 0 0 10 10"></path>
<path d="M581.5 278h20"></path>
<g class="non-terminal">
<path d="M601.5 278h0"></path>
<path d="M689.5 278h0"></path>
<rect x="601.5" y="267" width="88" height="22"></rect>
<a xlink:href="#distance"><text x="645.5" y="282">distance</text>
</a>
</g>
<path d="M689.5 278h20"></path>
</g>
</g>
<path d="M713.5 278a10 10 0 0 0 10 -10v-18a10 10 0 0 1 10 -10"></path>
</g>
</g>
<path d="M733.5 240a10 10 0 0 0 10 -10v-189a10 10 0 0 1 10 -10"></path>
</g>
</g>
<path d="M753.5 31h10"></path>
<path d="M 763.5 31 h 20 m -10 -10 v 20 m 10 -20 v 20"></path>
</g>
</svg>
