<svg class="railroad-diagram" width="1051" style="max-height: 138px;" viewBox="0 0 1051 138">
<style>
:root {
    --subtleText: #777;
    --highlightText: hotpink;
    --itemHeadingBackground: #eee;
    --background: white;
    --borderColor: #ccc;
    --textColor: #111;

    --diagramBackground: #f8f8f8;
    --diagramLines: black;
    --diagramText: black;
    --terminalLines: black;
    --terminalFill: #feffdf;
    --nonTerminalLines: black;
    --nonTerminalFill: #feffdf;
    --specialSequenceLines: black;
    --specialSequenceFill: #ffe79a;

    --ebnfCodeBackground: #e8e8e8;
    --ebnfIdentifier: #ef5a5a;
    --ebnfTerminal: #ffa952;
    --ebnfBaseColor: #777;
}
svg.railroad-diagram{background:var(--diagramBackground)}
svg.railroad-diagram {
  width: 100%;
}
svg.railroad-diagram path {
  stroke-width: 3;
  stroke: var(--diagramLines);
  fill: rgba(0,0,0,0);
}
svg.railroad-diagram text {
  font: bold 14px monospace;
  text-anchor: middle;
  fill: var(--diagramText);
}
svg.railroad-diagram text.diagram-text {
  font-size: 12px;
}
svg.railroad-diagram text.diagram-arrow {
  font-size: 16px;
}
svg.railroad-diagram text.label {
  text-anchor: start;
}
svg.railroad-diagram text.comment {
  font: italic 12px monospace;
}
svg.railroad-diagram g.non-terminal text {
  /*font-style: italic;*/
}
svg.railroad-diagram g.special-sequence rect {
  fill: var(--specialSequenceFill);
  stroke: var(--specialSequenceLines);
}
svg.railroad-diagram g.special-sequence text {
  font-style: italic;
}
svg.railroad-diagram rect {
  stroke-width: 3;
}
svg.railroad-diagram rect.group-box {
  stroke: gray;
  stroke-dasharray: 10 5;
  fill: none;
}
svg.railroad-diagram g.non-terminal rect {
  fill: var(--nonTerminalFill);
  stroke: var(--nonTerminalLines);
}
svg.railroad-diagram g.terminal rect {
  fill: var(--terminalFill);
  stroke: var(--terminalLines);
}
svg.railroad-diagram path.diagram-text {
  stroke-width: 3;
  stroke: black;
  fill: white;
  cursor: help;
}
svg.railroad-diagram g.diagram-text:hover path.diagram-text {
  fill: #eee;
}

</style>
<g transform="translate(.5 .5)">
<g>
<path d="M20 21v20m10 -20v20m-10 -10h20"></path>
</g>
<path d="M40 31h10"></path>
<g>
<path d="M50 31h0"></path>
<path d="M1001 31h0"></path>
<g class="non-terminal">
<path d="M50 31h0"></path>
<path d="M129.5 31h0"></path>
<rect x="50" y="20" width="79.5" height="22"></rect>
<a xlink:href="#element"><text x="89.75" y="35">element</text>
</a>
</g>
<path d="M129.5 31h10"></path>
<g>
<path d="M139.5 31h0"></path>
<path d="M1001 31h0"></path>
<path d="M139.5 31h20"></path>
<g class="non-terminal">
<path d="M159.5 31h320"></path>
<path d="M661 31h320"></path>
<rect x="479.5" y="20" width="181.5" height="22"></rect>
<a xlink:href="#visibility-relation"><text x="570.25" y="35">visibility relation</text>
</a>
</g>
<path d="M981 31h20"></path>
<path d="M139.5 31a10 10 0 0 1 10 10v18a10 10 0 0 0 10 10"></path>
<g>
<path d="M159.5 69h0"></path>
<path d="M981 69h0"></path>
<g class="non-terminal">
<path d="M159.5 69h0"></path>
<path d="M290 69h0"></path>
<rect x="159.5" y="58" width="130.5" height="22"></rect>
<a xlink:href="#size-property"><text x="224.75" y="73">size property</text>
</a>
</g>
<path d="M290 69h10"></path>
<g>
<path d="M300 69h0"></path>
<path d="M981 69h0"></path>
<path d="M300 69h20"></path>
<g>
<path d="M320 69h199"></path>
<path d="M762 69h199"></path>
<g>
<path d="M519 69h0"></path>
<path d="M664 69h0"></path>
<path d="M519 69a10 10 0 0 0 10 -10v0a10 10 0 0 1 10 -10"></path>
<g>
<path d="M539 49h105"></path>
</g>
<path d="M644 49a10 10 0 0 1 10 10v0a10 10 0 0 0 10 10"></path>
<path d="M519 69h20"></path>
<g class="non-terminal">
<path d="M539 69h0"></path>
<path d="M644 69h0"></path>
<rect x="539" y="58" width="105" height="22"></rect>
<a xlink:href="#comparator"><text x="591.5" y="73">comparator</text>
</a>
</g>
<path d="M644 69h20"></path>
</g>
<path d="M664 69h10"></path>
<g class="non-terminal">
<path d="M674 69h0"></path>
<path d="M762 69h0"></path>
<rect x="674" y="58" width="88" height="22"></rect>
<a xlink:href="#distance"><text x="718" y="73">distance</text>
</a>
</g>
</g>
<path d="M961 69h20"></path>
<path d="M300 69a10 10 0 0 1 10 10v18a10 10 0 0 0 10 10"></path>
<g>
<path d="M320 107h0"></path>
<path d="M961 107h0"></path>
<g>
<path d="M320 107h0"></path>
<path d="M465 107h0"></path>
<path d="M320 107a10 10 0 0 0 10 -10v0a10 10 0 0 1 10 -10"></path>
<g>
<path d="M340 87h105"></path>
</g>
<path d="M445 87a10 10 0 0 1 10 10v0a10 10 0 0 0 10 10"></path>
<path d="M320 107h20"></path>
<g class="non-terminal">
<path d="M340 107h0"></path>
<path d="M445 107h0"></path>
<rect x="340" y="96" width="105" height="22"></rect>
<a xlink:href="#comparator"><text x="392.5" y="111">comparator</text>
</a>
</g>
<path d="M445 107h20"></path>
</g>
<path d="M465 107h10"></path>
<g class="non-terminal">
<path d="M475 107h0"></path>
<path d="M580 107h0"></path>
<rect x="475" y="96" width="105" height="22"></rect>
<a xlink:href="#percentage"><text x="527.5" y="111">percentage</text>
</a>
</g>
<path d="M580 107h10"></path>
<path d="M590 107h10"></path>
<g class="terminal">
<path d="M600 107h0"></path>
<path d="M637 107h0"></path>
<rect x="600" y="96" width="37" height="22" rx="10" ry="10"></rect>
<text x="618.5" y="111">of</text>
</g>
<path d="M637 107h10"></path>
<path d="M647 107h10"></path>
<g class="non-terminal">
<path d="M657 107h0"></path>
<path d="M762 107h0"></path>
<rect x="657" y="96" width="105" height="22"></rect>
<a xlink:href="#identifier"><text x="709.5" y="111">identifier</text>
</a>
</g>
<path d="M762 107h10"></path>
<path d="M772 107h10"></path>
<g class="terminal">
<path d="M782 107h0"></path>
<path d="M810.5 107h0"></path>
<rect x="782" y="96" width="28.5" height="22" rx="10" ry="10"></rect>
<text x="796.25" y="111">/</text>
</g>
<path d="M810.5 107h10"></path>
<path d="M820.5 107h10"></path>
<g class="non-terminal">
<path d="M830.5 107h0"></path>
<path d="M961 107h0"></path>
<rect x="830.5" y="96" width="130.5" height="22"></rect>
<a xlink:href="#size-property"><text x="895.75" y="111">size property</text>
</a>
</g>
</g>
<path d="M961 107a10 10 0 0 0 10 -10v-18a10 10 0 0 1 10 -10"></path>
</g>
</g>
<path d="M981 69a10 10 0 0 0 10 -10v-18a10 10 0 0 1 10 -10"></path>
</g>
</g>
<path d="M1001 31h10"></path>
<path d="M 1011 31 h 20 m -10 -10 v 20 m 10 -20 v 20"></path>
</g>
</svg>
