<svg xmlns="http://www.w3.org/2000/svg" xmlns:xlink="http://www.w3.org/1999/xlink" xmlns:lucid="lucid" width="836" height="292.13"><g transform="translate(-1124.9951894946805 -1979)" lucid:page-tab-id="0_0"><path d="M1126 1986a6 6 0 0 1 6-6h822a6 6 0 0 1 6 6v278.13a6 6 0 0 1-6 6h-822a6 6 0 0 1-6-6z" stroke="#7a81ff" stroke-width="2" fill="#7a81ff"/><use xlink:href="#a" transform="matrix(1,0,0,1,1130.9951894946805,1985) translate(0 146.56355468750002)"/><path d="M1198.53 2040.1a6 6 0 0 1 6-6h653.2a6 6 0 0 1 6 6v154.95a6 6 0 0 1-6 6h-653.2a6 6 0 0 1-6-6z" fill="none"/><use xlink:href="#b" transform="matrix(1,0,0,1,1203.5277424347994,2039.1109697391971) translate(0 128.43333333333334)"/><defs><path fill="#fff" d="M66-60v-600c0-48 29-73 73-73s73 25 73 73v600c0 48-29 73-73 73S66-12 66-60" id="c"/><path fill="#fff" d="M543-386c0 105-9 267 15 343 0 33-31 56-66 56-63 0-84-40-86-85-57 63-123 85-200 85-83 0-165-57-165-149-1-155 151-164 293-178 35-4 63-12 63-54s-43-60-92-60c-108 0-111 80-169 80-37 0-62-26-62-56 0-58 82-132 232-132 140 0 237 45 237 150zM397-189v-57c-54 43-215 12-210 103 0 33 31 60 81 60 80 0 129-52 129-106" id="d"/><path fill="#fff" d="M158-481c33 113 61 230 96 341l89-331c10-37 30-65 70-65 58 0 75 48 75 66 0 12-4 27-11 46L308 55c-35 100-75 152-167 152-65 0-92-32-92-67 0-44 34-59 82-59 19 0 40-1 51-46L30-398c-12-35-18-51-18-68 0-40 32-70 71-70s66 22 75 55" id="e"/><path fill="#fff" d="M182-262c0 89 37 167 124 167s124-78 124-167c0-95-39-166-124-166s-124 71-124 166zm-146 0c0-154 94-274 270-274s270 120 270 274c0 146-71 275-270 275S36-116 36-262" id="f"/><path fill="#fff" d="M553-463v403c0 44-20 73-66 73-55 1-67-41-68-92-41 54-94 92-177 92-88 0-184-44-184-192v-284c0-39 16-73 73-73s73 34 73 73v255c0 59 29 101 92 101 51 0 111-42 111-115v-241c0-39 16-73 73-73s73 34 73 73" id="g"/><path fill="#fff" d="M96-117v-310c-48 4-83-7-83-48s35-52 83-48v-89c0-48 29-73 73-73s73 25 73 73v89c53-2 110-3 110 48s-57 50-110 48v292c-2 30 25 34 59 34 32 0 51 18 51 49 0 42-36 65-106 65C140 13 96-31 96-117" id="h"/><path fill="#fff" d="M40-276c3-108 150-69 246-69 45 0 81 18 81 69-3 108-150 69-246 69-45 0-81-18-81-69" id="i"/><path fill="#fff" d="M66-60v-403c0-39 16-73 73-73s73 34 73 73v403c0 39-16 73-73 73S66-21 66-60zm-3-601c0-42 34-76 76-76s76 34 76 76-34 76-76 76-76-34-76-76" id="j"/><path fill="#fff" d="M58-60v-403c0-44 20-73 66-73 55-1 67 41 68 92 41-54 94-92 177-92 88 0 184 44 184 192v284c0 39-16 73-73 73s-73-34-73-73v-255c0-59-29-101-92-101-51 0-111 42-111 115v241c0 39-16 73-73 73S58-21 58-60" id="k"/><g id="b"><use transform="matrix(0.13333333333333333,0,0,0.13333333333333333,0,0)" xlink:href="#c"/><use transform="matrix(0.13333333333333333,0,0,0.13333333333333333,37.06666666666666,0)" xlink:href="#d"/><use transform="matrix(0.13333333333333333,0,0,0.13333333333333333,118.53333333333333,0)" xlink:href="#e"/><use transform="matrix(0.13333333333333333,0,0,0.13333333333333333,183.60000000000002,0)" xlink:href="#f"/><use transform="matrix(0.13333333333333333,0,0,0.13333333333333333,265.20000000000005,0)" xlink:href="#g"/><use transform="matrix(0.13333333333333333,0,0,0.13333333333333333,346.66666666666674,0)" xlink:href="#h"/><use transform="matrix(0.13333333333333333,0,0,0.13333333333333333,396.00000000000006,0)" xlink:href="#i"/><use transform="matrix(0.13333333333333333,0,0,0.13333333333333333,450.2666666666667,0)" xlink:href="#c"/><use transform="matrix(0.13333333333333333,0,0,0.13333333333333333,487.33333333333337,0)" xlink:href="#j"/><use transform="matrix(0.13333333333333333,0,0,0.13333333333333333,524.4000000000001,0)" xlink:href="#k"/><use transform="matrix(0.13333333333333333,0,0,0.13333333333333333,605.8666666666668,0)" xlink:href="#h"/></g></defs></g></svg>