<svg xmlns="http://www.w3.org/2000/svg" xmlns:lucid="lucid" width="391.82" height="292.13"><g lucid:page-tab-id="0_0"><path d="M1 7a6 6 0 0 1 6-6h377.82a6 6 0 0 1 6 6v278.13a6 6 0 0 1-6 6H7a6 6 0 0 1-6-6z" stroke="#7a81ff" stroke-width="2" fill="#7a81ff"/><path d="M201 58.7a6 6 0 0 1 6-6h146.4a6 6 0 0 1 6 6v27.6a6 6 0 0 1-6 6H207a6 6 0 0 1-6-6zM21 114.14a6 6 0 0 1 6-6h326.4a6 6 0 0 1 6 6v27.6a6 6 0 0 1-6 6H27a6 6 0 0 1-6-6zM143.4 169.58a6 6 0 0 1 6-6h31.2a6 6 0 0 1 6 6v16.8a6 6 0 0 1-6 6h-31.2a6 6 0 0 1-6-6zM201 169.58a6 6 0 0 1 6-6h31.2a6 6 0 0 1 6 6v16.8a6 6 0 0 1-6 6H207a6 6 0 0 1-6-6zM258.6 169.58a6 6 0 0 1 6-6h31.2a6 6 0 0 1 6 6v16.8a6 6 0 0 1-6 6h-31.2a6 6 0 0 1-6-6zM316.2 169.58a6 6 0 0 1 6-6h31.2a6 6 0 0 1 6 6v16.8a6 6 0 0 1-6 6h-31.2a6 6 0 0 1-6-6zM258.6 214.22a6 6 0 0 1 6-6h88.8a6 6 0 0 1 6 6v20.4a6 6 0 0 1-6 6h-88.8a6 6 0 0 1-6-6z" fill="#fff"/></g></svg>