<svg class="railroad-diagram" width="532" style="max-height: 92px;" viewBox="0 0 532 92">
<style>
svg.railroad-diagram{background:#fbfbff}
svg.railroad-diagram {
  width: 100%;
}
svg.railroad-diagram path {
  stroke-width: 3;
  stroke: #1f2430;
  fill: rgba(0,0,0,0);
}
svg.railroad-diagram text {
  font: bold 14px monospace;
  text-anchor: middle;
  fill: #1f2430;
}
svg.railroad-diagram text.diagram-text {
  font-size: 12px;
}
svg.railroad-diagram text.diagram-arrow {
  font-size: 16px;
}
svg.railroad-diagram text.label {
  text-anchor: start;
}
svg.railroad-diagram text.comment {
  font: italic 12px monospace;
}
svg.railroad-diagram g.non-terminal text {
  /*font-style: italic;*/
}
svg.railroad-diagram g.special-sequence rect {
  fill: #f3f4ff;
  stroke: #7a81ff;
}
svg.railroad-diagram g.special-sequence text {
  font-style: italic;
}
svg.railroad-diagram rect {
  stroke-width: 3;
}
svg.railroad-diagram rect.group-box {
  stroke: gray;
  stroke-dasharray: 10 5;
  fill: none;
}
svg.railroad-diagram g.non-terminal rect {
  fill: #eef0ff;
  stroke: #7a81ff;
}
svg.railroad-diagram g.terminal rect {
  fill: #fff6e6;
  stroke: #c2680f;
}
svg.railroad-diagram path.diagram-text {
  stroke-width: 3;
  stroke: black;
  fill: white;
  cursor: help;
}
svg.railroad-diagram g.diagram-text:hover path.diagram-text {
  fill: #eee;
}

</style>
<g transform="translate(.5 .5)">
<g>
<path d="M20 21v20m10 -20v20m-10 -10h20"></path>
</g>
<path d="M40 31h10"></path>
<g>
<path d="M50 31h0"></path>
<path d="M482 31h0"></path>
<g class="terminal">
<path d="M50 31h0"></path>
<path d="M121 31h0"></path>
<rect x="50" y="20" width="71" height="22" rx="10" ry="10"></rect>
<text x="85.5" y="35">define</text>
</g>
<path d="M121 31h10"></path>
<g>
<path d="M131 31h0"></path>
<path d="M301.5 31h0"></path>
<path d="M131 31h20"></path>
<g class="non-terminal">
<path d="M151 31h0"></path>
<path d="M281.5 31h0"></path>
<rect x="151" y="20" width="130.5" height="22"></rect>
<a xlink:href="#wildcard-name"><text x="216.25" y="35">wildcard name</text>
</a>
</g>
<path d="M281.5 31h20"></path>
<path d="M131 31a10 10 0 0 1 10 10v10a10 10 0 0 0 10 10"></path>
<g class="non-terminal">
<path d="M151 61h12.75"></path>
<path d="M268.75 61h12.75"></path>
<rect x="163.75" y="50" width="105" height="22"></rect>
<a xlink:href="#identifier"><text x="216.25" y="65">identifier</text>
</a>
</g>
<path d="M281.5 61a10 10 0 0 0 10 -10v-10a10 10 0 0 1 10 -10"></path>
</g>
<path d="M301.5 31h10"></path>
<g class="terminal">
<path d="M311.5 31h0"></path>
<path d="M348.5 31h0"></path>
<rect x="311.5" y="20" width="37" height="22" rx="10" ry="10"></rect>
<text x="330" y="35">as</text>
</g>
<path d="M348.5 31h10"></path>
<path d="M358.5 31h10"></path>
<g class="non-terminal">
<path d="M368.5 31h0"></path>
<path d="M482 31h0"></path>
<rect x="368.5" y="20" width="113.5" height="22"></rect>
<a xlink:href="#quoted-text"><text x="425.25" y="35">quoted text</text>
</a>
</g>
</g>
<path d="M482 31h10"></path>
<path d="M 492 31 h 20 m -10 -10 v 20 m 10 -20 v 20"></path>
</g>
</svg>
