<svg class="railroad-diagram" width="462.5" style="max-height: 79px;" viewBox="0 0 462.5 79">
<style>
:root {
    --subtleText: #777;
    --highlightText: hotpink;
    --itemHeadingBackground: #eee;
    --background: white;
    --borderColor: #ccc;
    --textColor: #111;

    --diagramBackground: #f8f8f8;
    --diagramLines: black;
    --diagramText: black;
    --terminalLines: black;
    --terminalFill: #feffdf;
    --nonTerminalLines: black;
    --nonTerminalFill: #feffdf;
    --specialSequenceLines: black;
    --specialSequenceFill: #ffe79a;

    --ebnfCodeBackground: #e8e8e8;
    --ebnfIdentifier: #ef5a5a;
    --ebnfTerminal: #ffa952;
    --ebnfBaseColor: #777;
}
svg.railroad-diagram{background:var(--diagramBackground)}
svg.railroad-diagram {
  width: 100%;
}
svg.railroad-diagram path {
  stroke-width: 3;
  stroke: var(--diagramLines);
  fill: rgba(0,0,0,0);
}
svg.railroad-diagram text {
  font: bold 14px monospace;
  text-anchor: middle;
  fill: var(--diagramText);
}
svg.railroad-diagram text.diagram-text {
  font-size: 12px;
}
svg.railroad-diagram text.diagram-arrow {
  font-size: 16px;
}
svg.railroad-diagram text.label {
  text-anchor: start;
}
svg.railroad-diagram text.comment {
  font: italic 12px monospace;
}
svg.railroad-diagram g.non-terminal text {
  /*font-style: italic;*/
}
svg.railroad-diagram g.special-sequence rect {
  fill: var(--specialSequenceFill);
  stroke: var(--specialSequenceLines);
}
svg.railroad-diagram g.special-sequence text {
  font-style: italic;
}
svg.railroad-diagram rect {
  stroke-width: 3;
}
svg.railroad-diagram rect.group-box {
  stroke: gray;
  stroke-dasharray: 10 5;
  fill: none;
}
svg.railroad-diagram g.non-terminal rect {
  fill: var(--nonTerminalFill);
  stroke: var(--nonTerminalLines);
}
svg.railroad-diagram g.terminal rect {
  fill: var(--terminalFill);
  stroke: var(--terminalLines);
}
svg.railroad-diagram path.diagram-text {
  stroke-width: 3;
  stroke: black;
  fill: white;
  cursor: help;
}
svg.railroad-diagram g.diagram-text:hover path.diagram-text {
  fill: #eee;
}

</style>
<g transform="translate(.5 .5)">
<g>
<path d="M20 29v20m10 -20v20m-10 -10h20"></path>
</g>
<path d="M40 39h10"></path>
<g>
<path d="M50 39h0"></path>
<path d="M412.5 39h0"></path>
<g class="non-terminal">
<path d="M50 39h0"></path>
<path d="M197.5 39h0"></path>
<rect x="50" y="28" width="147.5" height="22"></rect>
<a xlink:href="#signed-distance"><text x="123.75" y="43">signed distance</text>
</a>
</g>
<path d="M197.5 39h10"></path>
<path d="M207.5 39h10"></path>
<g>
<path d="M217.5 39h0"></path>
<path d="M334 39h0"></path>
<path d="M217.5 39h10"></path>
<g class="non-terminal">
<path d="M227.5 39h0"></path>
<path d="M324 39h0"></path>
<rect x="227.5" y="28" width="96.5" height="22"></rect>
<a xlink:href="#direction"><text x="275.75" y="43">direction</text>
</a>
</g>
<path d="M324 39h10"></path>
<path d="M227.5 39a10 10 0 0 0 -10 10v0a10 10 0 0 0 10 10"></path>
<g>
<path d="M227.5 59h96.5"></path>
</g>
<path d="M324 59a10 10 0 0 0 10 -10v0a10 10 0 0 0 -10 -10"></path>
</g>
<path d="M334 39h10"></path>
<g>
<path d="M344 39h0"></path>
<path d="M412.5 39h0"></path>
<path d="M344 39a10 10 0 0 0 10 -10v0a10 10 0 0 1 10 -10"></path>
<g>
<path d="M364 19h28.5"></path>
</g>
<path d="M392.5 19a10 10 0 0 1 10 10v0a10 10 0 0 0 10 10"></path>
<path d="M344 39h20"></path>
<g class="terminal">
<path d="M364 39h0"></path>
<path d="M392.5 39h0"></path>
<rect x="364" y="28" width="28.5" height="22" rx="10" ry="10"></rect>
<text x="378.25" y="43">,</text>
</g>
<path d="M392.5 39h20"></path>
</g>
</g>
<path d="M412.5 39h10"></path>
<path d="M 422.5 39 h 20 m -10 -10 v 20 m 10 -20 v 20"></path>
</g>
</svg>
