<svg class="railroad-diagram" width="208" style="max-height: 182px;" viewBox="0 0 208 182">
<style>
:root {
    --subtleText: #777;
    --highlightText: hotpink;
    --itemHeadingBackground: #eee;
    --background: white;
    --borderColor: #ccc;
    --textColor: #111;

    --diagramBackground: #f8f8f8;
    --diagramLines: black;
    --diagramText: black;
    --terminalLines: black;
    --terminalFill: #feffdf;
    --nonTerminalLines: black;
    --nonTerminalFill: #feffdf;
    --specialSequenceLines: black;
    --specialSequenceFill: #ffe79a;

    --ebnfCodeBackground: #e8e8e8;
    --ebnfIdentifier: #ef5a5a;
    --ebnfTerminal: #ffa952;
    --ebnfBaseColor: #777;
}
svg.railroad-diagram{background:var(--diagramBackground)}
svg.railroad-diagram {
  width: 100%;
}
svg.railroad-diagram path {
  stroke-width: 3;
  stroke: var(--diagramLines);
  fill: rgba(0,0,0,0);
}
svg.railroad-diagram text {
  font: bold 14px monospace;
  text-anchor: middle;
  fill: var(--diagramText);
}
svg.railroad-diagram text.diagram-text {
  font-size: 12px;
}
svg.railroad-diagram text.diagram-arrow {
  font-size: 16px;
}
svg.railroad-diagram text.label {
  text-anchor: start;
}
svg.railroad-diagram text.comment {
  font: italic 12px monospace;
}
svg.railroad-diagram g.non-terminal text {
  /*font-style: italic;*/
}
svg.railroad-diagram g.special-sequence rect {
  fill: var(--specialSequenceFill);
  stroke: var(--specialSequenceLines);
}
svg.railroad-diagram g.special-sequence text {
  font-style: italic;
}
svg.railroad-diagram rect {
  stroke-width: 3;
}
svg.railroad-diagram rect.group-box {
  stroke: gray;
  stroke-dasharray: 10 5;
  fill: none;
}
svg.railroad-diagram g.non-terminal rect {
  fill: var(--nonTerminalFill);
  stroke: var(--nonTerminalLines);
}
svg.railroad-diagram g.terminal rect {
  fill: var(--terminalFill);
  stroke: var(--terminalLines);
}
svg.railroad-diagram path.diagram-text {
  stroke-width: 3;
  stroke: black;
  fill: white;
  cursor: help;
}
svg.railroad-diagram g.diagram-text:hover path.diagram-text {
  fill: #eee;
}

</style>
<g transform="translate(.5 .5)">
<g>
<path d="M20 21v20m10 -20v20m-10 -10h20"></path>
</g>
<g>
<path d="M40 31h0"></path>
<path d="M168 31h0"></path>
<path d="M40 31h20"></path>
<g class="terminal">
<path d="M60 31h25.5"></path>
<path d="M122.5 31h25.5"></path>
<rect x="85.5" y="20" width="37" height="22" rx="10" ry="10"></rect>
<text x="104" y="35">is</text>
</g>
<path d="M148 31h20"></path>
<path d="M40 31a10 10 0 0 1 10 10v10a10 10 0 0 0 10 10"></path>
<g class="terminal">
<path d="M60 61h0"></path>
<path d="M148 61h0"></path>
<rect x="60" y="50" width="88" height="22" rx="10" ry="10"></rect>
<text x="104" y="65">contains</text>
</g>
<path d="M148 61a10 10 0 0 0 10 -10v-10a10 10 0 0 1 10 -10"></path>
<path d="M40 31a10 10 0 0 1 10 10v40a10 10 0 0 0 10 10"></path>
<g class="terminal">
<path d="M60 91h8.5"></path>
<path d="M139.5 91h8.5"></path>
<rect x="68.5" y="80" width="71" height="22" rx="10" ry="10"></rect>
<text x="104" y="95">starts</text>
</g>
<path d="M148 91a10 10 0 0 0 10 -10v-40a10 10 0 0 1 10 -10"></path>
<path d="M40 31a10 10 0 0 1 10 10v70a10 10 0 0 0 10 10"></path>
<g class="terminal">
<path d="M60 121h17"></path>
<path d="M131 121h17"></path>
<rect x="77" y="110" width="54" height="22" rx="10" ry="10"></rect>
<text x="104" y="125">ends</text>
</g>
<path d="M148 121a10 10 0 0 0 10 -10v-70a10 10 0 0 1 10 -10"></path>
<path d="M40 31a10 10 0 0 1 10 10v100a10 10 0 0 0 10 10"></path>
<g class="terminal">
<path d="M60 151h4.25"></path>
<path d="M143.75 151h4.25"></path>
<rect x="64.25" y="140" width="79.5" height="22" rx="10" ry="10"></rect>
<text x="104" y="155">matches</text>
</g>
<path d="M148 151a10 10 0 0 0 10 -10v-100a10 10 0 0 1 10 -10"></path>
</g>
<path d="M 168 31 h 20 m -10 -10 v 20 m 10 -20 v 20"></path>
</g>
</svg>
